<?xml version="1.0" encoding="iso-8859-1"?>
<!-- Generator: Adobe Illustrator 19.0.0, SVG Export Plug-In . SVG Version: 6.00 Build 0)  -->
<svg version="1.1" id="Layer_1" xmlns="http://www.w3.org/2000/svg" xmlns:xlink="http://www.w3.org/1999/xlink" x="0px" y="0px"
	 viewBox="0 0 512 512" style="enable-background:new 0 0 512 512;" xml:space="preserve">
<path style="fill:#FA9647;" d="M99.789,474.515c-8.321,8.321-19.384,12.903-31.151,12.903s-22.83-4.582-31.151-12.903
	c-10.192-10.193-25.577-33.504-14.095-75.099c5.18-18.772,15.532-40.893,30.766-65.749c28.65-46.745,73.3-101.36,125.723-153.786
	c52.425-52.423,107.039-97.072,153.786-125.723c24.857-15.235,46.978-25.586,65.748-30.766c41.595-11.482,64.906,3.903,75.1,14.095
	c8.321,8.321,12.903,19.383,12.903,31.151c0,11.767-4.582,22.83-12.903,31.151L99.789,474.515z"/>
<path style="fill:#FB7A5B;" d="M396.487,12.779c-19.766,5.455-42.837,16.219-68.573,31.991
	c-47.462,29.09-102.799,74.309-155.817,127.326C119.08,225.115,73.86,280.451,44.77,327.914
	c-15.774,25.736-26.537,48.807-31.991,68.573c-12.966,46.974,5.037,73.925,16.922,85.812l12.727-43.505
	c-1.811-8.554-1.673-19.523,2.19-33.52c4.632-16.781,14.157-37.003,28.314-60.099c27.773-45.313,71.285-98.486,122.52-149.722
	c51.237-51.235,104.41-94.748,149.722-122.52c23.097-14.156,43.319-23.682,60.102-28.315c13.997-3.863,24.966-4.001,33.518-2.19
	L482.3,29.7C470.413,17.816,443.461-0.188,396.487,12.779z"/>
<path style="fill:#FCD999;" d="M356.414,109.606c-39.717,24.344-89.104,64.914-135.5,111.307
	c-46.396,46.397-86.966,95.785-111.308,135.498c-10.316,16.832-15.435,28.219-17.923,34.871c6.652-2.489,18.04-7.607,34.871-17.923
	c39.713-24.342,89.102-64.911,135.499-111.308c46.393-46.394,86.964-95.783,111.307-135.5c10.316-16.833,15.435-28.22,17.922-34.869
	C384.635,94.171,373.247,99.29,356.414,109.606z"/>
<polygon style="fill:#FBC566;" points="281.253,257.002 257.001,281.253 464.795,503.721 503.721,464.795 "/>
<polygon style="fill:#FCD999;" points="8.281,47.206 244.323,267.678 267.679,244.323 47.206,8.281 "/>
<circle style="fill:#FFFFFF;" cx="256" cy="256" r="88.078"/>
<circle style="fill:#F9B233;" cx="256" cy="256" r="55.049"/>
<path style="fill:#FD5F6E;" d="M446.322,34.899l-54.127,54.127c-2.822,8.494-10.776,27.035-32.801,58.796
	c-24.926,35.946-58.594,75.439-97.364,114.209c-38.77,38.77-78.263,72.438-114.209,97.364
	c-31.761,22.025-50.302,29.98-58.796,32.801l-54.127,54.127l3.502,29.086c10.639,10.163,33.79,24.35,74.185,13.201
	c18.771-5.18,40.891-15.531,65.748-30.766c46.746-28.651,101.362-73.301,153.786-125.724
	c52.423-52.424,97.073-107.04,125.724-153.786c15.234-24.857,25.586-46.979,30.766-65.749c11.15-40.393-3.038-63.544-13.201-74.184
	L446.322,34.899z"/>
<path style="fill:#FF2796;" d="M446.322,34.899l-7.53,7.53c9.347,1.98,15.808,6.288,20.15,10.629
	c8.313,8.316,16.525,24.376,8.439,53.669c-4.633,16.784-14.157,37.005-28.315,60.102c-27.772,45.312-71.285,98.485-122.52,149.722
	c-51.236,51.235-104.409,94.747-149.722,122.52c-23.096,14.156-43.318,23.682-60.099,28.314
	c-29.295,8.086-45.356-0.126-53.672-8.439c-4.341-4.342-8.649-10.803-10.629-20.15l-7.53,7.53
	c-9.582,9.582-11.921,25.772-5.198,35.977c11.887,11.885,38.839,29.889,85.814,16.923c19.766-5.455,42.837-16.218,68.573-31.992
	c47.462-29.09,102.799-74.308,155.817-127.326c53.016-53.019,98.236-108.355,127.326-155.817
	c15.774-25.736,26.537-48.807,31.992-68.573c12.966-46.974-5.037-73.926-16.922-85.812
	C472.094,22.978,455.905,25.317,446.322,34.899z"/>
<path d="M366.059,324.915c44.671-46.948,82.594-94.717,108.211-136.514c16.178-26.397,27.251-50.181,32.912-70.692
	c14.078-51.002-5.887-80.69-19.043-93.848C474.98,10.708,445.294-9.26,394.29,4.819c-20.512,5.661-44.296,16.734-70.692,32.912
	c-36.183,22.177-77.092,53.735-118.305,91.262c-3.372,3.071-3.616,8.293-0.546,11.665c3.072,3.372,8.294,3.618,11.666,0.546
	c40.457-36.838,80.505-67.75,115.814-89.392c25.076-15.369,47.436-25.823,66.455-31.073c42.933-11.852,67.162,4.187,77.779,14.802
	c10.616,10.618,26.652,34.84,14.8,77.778c-5.249,19.018-15.703,41.378-31.073,66.455c-28.761,46.925-73.553,101.72-126.124,154.293
	c-52.576,52.573-107.371,97.365-154.294,126.125c-25.076,15.369-47.436,25.823-66.455,31.073
	c-10.724,2.959-20.276,4.18-28.744,4.179c-25.438-0.003-41.068-11.02-49.032-18.983c-10.616-10.618-26.654-34.839-14.8-77.777
	c5.249-19.019,15.703-41.378,31.073-66.454c21.642-35.311,52.553-75.359,89.393-115.816c3.07-3.372,2.825-8.594-0.546-11.665
	c-3.372-3.071-8.594-2.827-11.666,0.546c-37.527,41.213-69.085,82.122-91.262,118.305c-16.178,26.396-27.251,50.18-32.912,70.691
	c-14.079,51.003,5.887,80.691,19.043,93.848c9.977,9.974,29.45,23.864,60.516,23.862c9.908,0,20.999-1.414,33.332-4.818
	c20.512-5.661,44.296-16.734,70.692-32.912c41.793-25.616,89.563-63.539,136.512-108.211L458.76,509.357
	c1.627,1.741,3.829,2.62,6.037,2.62c2.018,0,4.043-0.735,5.634-2.223c3.333-3.112,3.511-8.338,0.399-11.671l-134.03-143.495
	c2.988-2.924,5.971-5.87,8.944-8.844c2.974-2.974,5.92-5.957,8.844-8.944L498.084,470.83c1.591,1.487,3.616,2.223,5.634,2.223
	c2.209,0,4.411-0.88,6.037-2.62c3.112-3.333,2.934-8.558-0.399-11.671L366.059,324.915z"/>
<path d="M171.029,210.517c-7.423,13.824-11.365,29.35-11.365,45.483c0,24.277,8.928,47.177,25.216,64.97
	c-22.202,18.141-43.565,33.659-62.639,45.349c-16.32,10.001-27.199,14.89-33.451,17.229c-4.272,1.599-6.439,6.356-4.84,10.628
	c1.242,3.318,4.39,5.366,7.734,5.366c0.961,0,1.94-0.168,2.892-0.526c6.932-2.593,18.854-7.928,36.294-18.616
	c40.245-24.666,90.188-65.674,137.023-112.509c46.835-46.838,87.843-96.78,112.508-137.023
	c10.694-17.449,16.026-29.366,18.614-36.292c1.598-4.272-0.57-9.029-4.841-10.627c-4.269-1.596-9.028,0.57-10.626,4.841
	c-2.336,6.246-7.221,17.118-17.227,33.447c-11.691,19.076-27.212,40.441-45.355,62.646c-30.66-28.036-75.191-32.641-110.414-13.818
	L53.241,2.644c-3.114-3.33-8.339-3.511-11.671-0.397c-3.333,3.112-3.511,8.338-0.399,11.671l155.355,166.327
	c-2.991,2.352-5.888,4.882-8.645,7.637c-2.744,2.744-5.277,5.639-7.643,8.639L13.916,41.171c-3.33-3.114-8.556-2.934-11.671,0.397
	c-3.112,3.333-2.934,8.558,0.399,11.671L171.029,210.517z M256.215,256.214c-11.167,11.167-22.503,21.985-33.831,32.317
	c-17.703-18.286-17.534-47.556,0.528-65.617c18.062-18.062,47.331-18.231,65.617-0.53C278.2,233.71,267.381,245.047,256.215,256.214
	z M310.372,197.592c-3.526,4.15-7.133,8.317-10.816,12.495c-24.769-23.509-64.033-23.138-88.32,1.148
	c-24.288,24.289-24.659,63.553-1.148,88.32c-4.179,3.684-8.348,7.292-12.497,10.818c-13.819-14.819-21.411-34.009-21.411-54.375
	c0-21.32,8.302-41.366,23.379-56.442C230.002,169.115,279.111,168.47,310.372,197.592z"/>
<g>
</g>
<g>
</g>
<g>
</g>
<g>
</g>
<g>
</g>
<g>
</g>
<g>
</g>
<g>
</g>
<g>
</g>
<g>
</g>
<g>
</g>
<g>
</g>
<g>
</g>
<g>
</g>
<g>
</g>
</svg>
